<?xml version="1.0" encoding="utf-8"?>
<!-- Generator: Adobe Illustrator 15.1.0, SVG Export Plug-In . SVG Version: 6.00 Build 0)  -->
<!DOCTYPE svg PUBLIC "-//W3C//DTD SVG 1.0//EN" "http://www.w3.org/TR/2001/REC-SVG-20010904/DTD/svg10.dtd">
<svg version="1.0" xmlns="http://www.w3.org/2000/svg" xmlns:xlink="http://www.w3.org/1999/xlink" x="0px" y="0px"
	 width="397.48px" height="212.989px" viewBox="0 0 397.48 212.989" enable-background="new 0 0 397.48 212.989"
	 xml:space="preserve">
<g id="レイヤー_2">
	<g>
		<rect x="23.537" y="77.526" fill="#0096FA" width="123" height="124"/>
		
			<rect x="69.858" y="-16.132" transform="matrix(0.5401 0.8416 -0.8416 0.5401 72.3786 -41.7501)" fill="#0096FA" width="9.067" height="122.97"/>
	</g>
	<g>
		<path fill="#FFFFFF" d="M71.511,130.85c0.893,0,1.674-0.446,2.121-1.228c0.558-1.004,1.563-1.451,2.456-1.451
			c1.228,0,2.679,1.116,2.679,2.791c0,2.902-2.902,5.358-6.362,5.358h-7.59v47.326c0,2.902-2.232,4.241-4.353,4.241
			c-2.009,0-4.019-1.339-4.019-4.019v-32.704c-4.018,7.255-8.594,14.287-14.622,20.091c-0.781,0.67-1.563,0.894-2.232,0.894
			c-2.121,0-4.019-2.456-2.009-4.688c7.59-8.817,13.506-19.867,17.078-31.141H43.16c-3.684,0-3.684-5.47,0-5.47h13.282v-10.827
			c0-2.567,2.009-3.907,4.019-3.907c2.121,0,4.353,1.339,4.353,4.13v10.604H71.511z M77.538,100.49c0.893,0,1.674-0.446,2.121-1.228
			c0.558-0.781,1.451-1.116,2.232-1.116c1.339,0,2.679,0.893,2.679,2.567c0,2.791-2.791,4.911-6.139,4.911h-11.05
			c4.241,4.911,5.469,7.367,6.027,8.595c1.563,3.237-1.116,6.027-3.572,6.027c-1.451,0-2.902-0.781-3.572-2.679
			c-1.563-4.242-3.572-8.483-6.474-11.943h-4.911c-1.563,2.232-11.72,15.292-15.068,15.292c-2.121,0-3.795-2.679-2.009-4.688
			c7.255-8.148,10.938-14.622,15.626-24.444c0.893-1.786,2.121-2.567,3.684-2.567c2.679,0,5.358,2.567,3.907,5.804v0.111
			c-0.112,0.224-0.893,2.456-2.679,5.358H77.538z M72.738,157.526c-1.786-3.236-3.907-6.362-6.25-8.93
			c-0.893-1.004-0.893-2.232-0.223-3.125c0.558-0.781,1.228-1.004,1.897-1.004c2.344,0,5.134,2.901,6.585,4.353
			c2.791,3.014,6.25,8.372,2.344,10.38C74.636,160.429,73.52,158.643,72.738,157.526z M124.083,100.602
			c0.781,0,1.563-0.447,1.897-1.116c0.558-0.782,1.451-1.116,2.232-1.116c1.339,0,2.679,0.893,2.679,2.567
			c0,2.791-2.791,4.911-5.916,4.911h-16.743c4.576,4.577,6.25,7.479,6.809,8.707c1.563,3.349-0.669,6.027-3.46,6.027
			c-1.228,0-2.232-0.558-3.125-1.897c-0.781-1.228-2.456-6.362-8.26-12.836h-5.134c-1.451,2.232-10.715,14.064-13.618,14.064
			c-2.121,0-4.018-2.567-2.232-4.465c7.255-8.259,13.171-19.868,14.398-23.551c0.67-1.897,2.344-2.679,3.795-2.679
			c2.679,0,5.469,2.567,4.019,5.804c-0.335,0.781-1.786,3.907-2.791,5.581H124.083z M126.762,183.087
			c0,2.902-2.009,4.242-4.242,4.242c-2.009,0-3.795-1.229-3.907-3.795H92.16c-0.111,2.79-2.232,4.129-4.353,4.129
			c-2.009,0-4.018-1.228-4.018-4.018v-58.823c0-2.567,2.121-4.018,4.13-4.018c1.228,0,2.344,0.335,3.237,1.339h28.463
			c0.781-1.004,1.897-1.339,3.014-1.339c2.232,0,4.13,1.451,4.13,4.018V183.087z M92.16,140.448h26.454v-13.17H92.16V140.448z
			 M92.16,158.643h26.454v-13.06H92.16V158.643z M92.16,178.064h26.454v-14.287H92.16V178.064z"/>
	</g>
	<g>
		<path fill="#0096FA" d="M168.482,176.165c-0.84-0.529-3.668-3.137-6.982-4.242c-1.37-0.441-0.972-2.475,0.575-2.297
			c2.121,0.221,7.115,2.121,8.484,3.711C172.062,174.751,170.25,177.271,168.482,176.165z M188.986,173.868
			c-2.166,3.049-4.596,5.744-7.601,8.484c-3.271,2.916-6.496,4.684-9.943,5.965c-2.43,0.884-4.994,0.796-5.877,0.796
			c-2.43,0-2.386-3.712,0-3.712c2.431,0,4.021-0.266,4.861-0.53c2.651-0.84,5.17-1.944,8.838-4.949
			c2.784-2.254,5.214-4.817,7.379-7.557c1.989-2.519,3.756-5.347,4.817-7.38c0.751-1.414,2.784-0.177,2.209,1.193
			C192.831,168.123,190.886,171.216,188.986,173.868z M172.901,168.167c-0.796-0.574-3.403-3.402-6.629-4.772
			c-1.325-0.574-0.795-2.519,0.751-2.253c2.077,0.397,7.026,2.65,8.175,4.374C176.569,167.019,174.58,169.404,172.901,168.167z"/>
		<path fill="#0096FA" d="M225.396,170.465c1.193-0.132,1.37-0.795,2.387-0.485c0.884,0.176,1.325,1.061,1.193,1.768
			c-0.132,1.723-3.491,6.761-10.075,8.352c-1.193,0.265-1.9-1.414-0.663-2.033c2.253-1.148,4.949-2.43,6.761-5.258l-10.075,1.502
			l1.988,15.467c0.266,2.032-2.739,2.342-3.005,0.397l-1.944-15.467l-7.821,1.061c-1.635,0.222-1.988-2.386-0.31-2.563l7.866-0.929
			c0,0-0.354-2.209-0.575-3.313c-0.309-1.414-0.442-1.944-1.193-2.343c-1.635-0.928-0.398-3.182,1.193-2.695
			c1.458,0.442,2.342,1.459,3.005,4.419c0.265,1.237,0.486,3.491,0.486,3.491L225.396,170.465z"/>
		<path fill="#0096FA" d="M249.299,176.784c0.088,0.044-1.502-2.916-3.712-4.905c-0.132-0.088-0.221-0.177-0.221-0.177
			c-1.016-0.84,0.266-2.519,1.37-1.855c3.358,1.988,4.684,4.153,5.303,5.258C253.056,176.917,250.271,178.817,249.299,176.784z
			 M260.258,184.164c-2.74,2.606-6.761,5.303-11.622,7.158c-1.282,0.486-2.077-1.325-0.884-1.944
			c3.667-1.855,7.601-4.286,10.473-7.379c3.314-3.58,5.568-8.176,5.479-13.699c-0.044-2.209,3.314-2.254,3.358-0.088
			C267.152,174.619,264.368,180.231,260.258,184.164z M252.26,168.212c-1.016-1.017,0.266-2.431,1.458-1.724
			c1.635,0.972,3.624,2.606,4.994,5.523c0.884,1.856-1.635,3.358-2.74,1.635c-1.325-3.093-3.491-5.214-3.491-5.214L252.26,168.212z"
			/>
		<path fill="#0096FA" d="M305.55,162.6c0.486,0,0.928-0.177,1.326-0.486c1.281-0.928,3.049,0.177,2.96,1.812
			c-0.221,4.242-2.784,9.854-7.777,15.024c-5.479,5.7-12.505,9.015-18.56,10.474c-1.591,0.397-2.253-1.989-0.707-2.475
			c3.137-1.017,8.042-2.784,13.478-7.203c3.933-3.182,7.07-7.115,9.412-13.434c0.177-0.486,0.221-0.884-0.354-0.884h-20.062
			c-1.723,0-1.723-2.828,0-2.828H305.55z"/>
		<path fill="#0096FA" d="M343.727,165.737c0.53,0,1.017-0.133,1.37-0.398c0.397-0.265,0.795-0.354,1.193-0.309
			c1.016,0,1.812,0.883,1.679,1.943c-0.486,3.491-1.37,6.452-3.667,10.43c-1.282,2.253-3.844,5.479-7.247,8.263
			c-3.977,3.314-7.556,4.861-9.368,5.436c-1.458,0.442-2.298-1.547-0.795-2.342c1.679-0.84,4.729-2.298,8.175-5.303
			c1.856-1.636,4.552-4.596,6.143-7.601c1.149-2.121,2.121-4.242,2.519-6.319c0.221-0.574,0.31-1.061-0.177-1.061h-17.896
			c-1.9,0-1.9-2.739,0-2.739H343.727z M344.036,157.694c1.768,0,1.679,2.74-0.133,2.74h-15.112c-1.812,0-1.724-2.74,0.088-2.74
			H344.036z"/>
		<path fill="#0096FA" d="M386.986,172.321c0.398,0,0.707-0.221,0.928-0.574c0.309-0.486,0.707-0.663,1.148-0.663
			c0.663,0,1.326,0.485,1.326,1.37c0,1.458-1.414,2.65-2.961,2.65h-25.497c-1.724,0-1.856-2.783-0.133-2.783H386.986z"/>
	</g>
	<g>
		<path fill="#0096FA" d="M192.565,106.316c0.354,0,0.619-0.177,0.795-0.486c0.221-0.397,0.575-0.574,0.972-0.574
			c0.53,0,1.061,0.397,1.061,1.104c0,1.149-1.149,2.121-2.475,2.121h-2.651v4.463c0,1.061-0.84,1.635-1.679,1.635
			c-0.707,0-1.458-0.486-1.546-1.414h-9.015v2.386h10.738c0.309,0,0.663-0.133,0.795-0.442c0.221-0.398,0.619-0.575,0.972-0.575
			c0.53,0,1.105,0.398,1.105,1.061c0,1.193-1.193,2.121-2.519,2.121h-11.091v2.387h14.538c0.354,0,0.619-0.177,0.795-0.398
			c0.221-0.398,0.575-0.53,0.928-0.53c0.574,0,1.061,0.398,1.061,1.061c0,1.149-1.105,2.077-2.431,2.077h-33.938
			c-1.414,0-1.502-2.209-0.044-2.209h15.819v-2.387h-12.02c-1.414,0-1.502-2.165-0.088-2.165h12.107v-2.386h-10.473
			c-1.458,0-1.547-2.121-0.088-2.121h10.561v-2.563h-15.422c-1.458,0-1.502-2.165-0.088-2.165h15.51v-2.563h-10.429
			c-1.458,0-1.546-2.165-0.088-2.165h10.517v-1.679c0-1.061,0.84-1.546,1.635-1.546c0.839,0,1.635,0.486,1.635,1.546v1.679h9.456
			c0.354-0.354,0.796-0.53,1.149-0.53c0.839,0,1.635,0.663,1.635,1.591v3.668H192.565z M189.34,136.321
			c0,1.061-0.796,1.679-1.68,1.679c-0.751,0-1.458-0.486-1.502-1.458h-19.09c-0.044,1.016-0.84,1.591-1.635,1.591
			s-1.546-0.53-1.546-1.547v-10.782c0-1.017,0.795-1.635,1.591-1.635c0.441,0,0.884,0.132,1.237,0.53h19.797
			c0.354-0.398,0.795-0.53,1.237-0.53c0.839,0,1.591,0.618,1.591,1.635V136.321z M167.112,129.472h19.001v-2.651h-19.001V129.472z
			 M167.112,134.376h19.001v-2.828h-19.001V134.376z M178.027,106.316h9.015v-2.563h-9.015V106.316z M178.027,111.044h9.015v-2.563
			h-9.015V111.044z"/>
		<path fill="#0096FA" d="M217.662,138.044c-2.563,0.133-4.552-0.751-6.01-2.077c-2.607-2.386-3.491-5.656-2.961-8.308
			c0.266-1.458,2.431-1.326,2.431,0.132c0,1.503,0.619,3.933,2.74,5.392c1.679,1.148,3.093,1.016,4.021,1.148
			C220.225,134.642,220.093,137.911,217.662,138.044z M225.307,124.257c0.796,0,0.31-0.707-0.044-1.325
			c-0.663-1.237-1.326-2.651-1.988-4.331c-2.475,0.707-4.861,0.84-6.143,0.707c-2.209-0.221-4.552-1.193-4.905-3.402
			c-0.221-1.414,0.53-3.712,3.138-5.656c0.884-0.663-0.177-1.414-1.193-1.988c-0.884-0.486-1.944-0.928-3.005-1.149
			c-1.325-0.309-1.104-2.121,0.266-2.209c3.049-0.177,5.965,1.104,7.865,3.049c0.884,0.884,0.442,2.563-0.795,2.961
			c-1.193,0.397-2.166,0.972-2.828,1.723c-1.856,2.033-0.928,3.756,1.723,4.021c1.546,0.177,3.491-0.177,4.949-0.663
			c-1.591-7.777-1.37-13.301-1.237-15.378c0.132-1.812,3.005-1.812,3.093,0.044c0.088,2.386-0.707,7.512,1.017,14.317
			c1.237-0.442,2.563-1.149,3.491-1.68c1.856-1.061,3.358,1.414,1.546,2.651c-0.928,0.619-2.563,1.37-3.977,1.856
			c2.43,5.037,4.772,6.717,5.347,7.291c1.812,1.812-0.84,4.552-2.695,2.828c-1.68-1.547-2.784-1.326-6.806-1.326
			c-1.546,0-1.546-2.342,0-2.342H225.307z"/>
	</g>
	<g>
		<rect x="-483.463" y="-124.474" fill="#0096FA" width="123" height="124"/>
		
			<rect x="-437.142" y="-218.132" transform="matrix(0.5401 0.8416 -0.8416 0.5401 -330.7775 292.0385)" fill="#0096FA" width="9.067" height="122.97"/>
	</g>
	<g>
		<path fill="#FFFFFF" d="M-435.489-71.15c0.893,0,1.674-0.446,2.121-1.228c0.558-1.004,1.563-1.451,2.456-1.451
			c1.228,0,2.679,1.116,2.679,2.791c0,2.902-2.902,5.358-6.362,5.358h-7.59v47.326c0,2.902-2.232,4.242-4.353,4.242
			c-2.009,0-4.019-1.339-4.019-4.019v-32.704c-4.018,7.255-8.594,14.287-14.622,20.091c-0.781,0.67-1.563,0.893-2.232,0.893
			c-2.121,0-4.019-2.456-2.009-4.688c7.59-8.818,13.506-19.868,17.078-31.141h-11.497c-3.684,0-3.684-5.47,0-5.47h13.282v-10.827
			c0-2.567,2.009-3.907,4.019-3.907c2.121,0,4.353,1.339,4.353,4.13v10.604H-435.489z M-429.462-101.51
			c0.893,0,1.674-0.446,2.121-1.228c0.558-0.781,1.451-1.116,2.232-1.116c1.339,0,2.679,0.893,2.679,2.567
			c0,2.791-2.791,4.911-6.139,4.911h-11.05c4.241,4.911,5.469,7.367,6.027,8.595c1.563,3.237-1.116,6.027-3.572,6.027
			c-1.451,0-2.902-0.781-3.572-2.679c-1.563-4.242-3.572-8.483-6.474-11.943h-4.911c-1.563,2.232-11.72,15.292-15.068,15.292
			c-2.121,0-3.795-2.679-2.009-4.688c7.255-8.148,10.938-14.622,15.626-24.444c0.893-1.786,2.121-2.567,3.684-2.567
			c2.679,0,5.358,2.567,3.907,5.804v0.111c-0.112,0.224-0.893,2.456-2.679,5.358H-429.462z M-434.262-44.474
			c-1.786-3.237-3.907-6.362-6.25-8.929c-0.893-1.005-0.893-2.232-0.223-3.125c0.558-0.781,1.228-1.004,1.897-1.004
			c2.344,0,5.134,2.902,6.585,4.353c2.791,3.014,6.25,8.372,2.344,10.38C-432.364-41.571-433.48-43.357-434.262-44.474z
			 M-382.917-101.398c0.781,0,1.563-0.447,1.897-1.116c0.558-0.782,1.451-1.116,2.232-1.116c1.339,0,2.679,0.893,2.679,2.567
			c0,2.791-2.791,4.911-5.916,4.911h-16.743c4.576,4.577,6.25,7.479,6.809,8.707c1.563,3.349-0.669,6.027-3.46,6.027
			c-1.228,0-2.232-0.558-3.125-1.897c-0.781-1.228-2.456-6.362-8.26-12.836h-5.134c-1.451,2.232-10.715,14.064-13.618,14.064
			c-2.121,0-4.018-2.567-2.232-4.465c7.255-8.259,13.171-19.868,14.398-23.551c0.67-1.897,2.344-2.679,3.795-2.679
			c2.679,0,5.469,2.567,4.019,5.804c-0.335,0.781-1.786,3.907-2.791,5.581H-382.917z M-380.238-18.913
			c0,2.902-2.009,4.242-4.242,4.242c-2.009,0-3.795-1.228-3.907-3.795h-26.454c-0.111,2.791-2.232,4.13-4.353,4.13
			c-2.009,0-4.018-1.228-4.018-4.019v-58.823c0-2.567,2.121-4.018,4.13-4.018c1.228,0,2.344,0.335,3.237,1.339h28.463
			c0.781-1.004,1.897-1.339,3.014-1.339c2.232,0,4.13,1.451,4.13,4.018V-18.913z M-414.84-61.551h26.454v-13.171h-26.454V-61.551z
			 M-414.84-43.357h26.454v-13.059h-26.454V-43.357z M-414.84-23.936h26.454v-14.287h-26.454V-23.936z"/>
	</g>
	<g>
		<path fill="#0096FA" d="M-338.518-25.834c-0.84-0.53-3.668-3.137-6.982-4.242c-1.37-0.442-0.972-2.475,0.575-2.298
			c2.121,0.221,7.115,2.121,8.484,3.712C-334.938-27.249-336.75-24.729-338.518-25.834z M-318.014-28.132
			c-2.166,3.049-4.596,5.745-7.601,8.484c-3.271,2.917-6.496,4.684-9.943,5.965c-2.43,0.884-4.994,0.796-5.877,0.796
			c-2.43,0-2.386-3.712,0-3.712c2.431,0,4.021-0.266,4.861-0.53c2.651-0.84,5.17-1.944,8.838-4.949
			c2.784-2.254,5.214-4.817,7.379-7.557c1.989-2.519,3.756-5.347,4.817-7.38c0.751-1.414,2.784-0.177,2.209,1.193
			C-314.169-33.877-316.114-30.784-318.014-28.132z M-334.099-33.833c-0.796-0.574-3.403-3.402-6.629-4.772
			c-1.325-0.574-0.795-2.519,0.751-2.253c2.077,0.398,7.026,2.651,8.175,4.375C-330.431-34.981-332.42-32.596-334.099-33.833z"/>
		<path fill="#0096FA" d="M-281.604-31.535c1.193-0.132,1.37-0.795,2.387-0.486c0.884,0.177,1.325,1.061,1.193,1.768
			c-0.132,1.723-3.491,6.761-10.075,8.352c-1.193,0.265-1.9-1.414-0.663-2.033c2.253-1.148,4.949-2.43,6.761-5.258l-10.075,1.502
			l1.988,15.466c0.266,2.033-2.739,2.342-3.005,0.398l-1.944-15.467l-7.821,1.061c-1.635,0.221-1.988-2.386-0.31-2.563l7.866-0.928
			c0,0-0.354-2.209-0.575-3.314c-0.309-1.414-0.442-1.944-1.193-2.342c-1.635-0.928-0.398-3.182,1.193-2.696
			c1.458,0.442,2.342,1.458,3.005,4.419c0.265,1.237,0.486,3.491,0.486,3.491L-281.604-31.535z"/>
		<path fill="#0096FA" d="M-257.701-25.216c0.088,0.044-1.502-2.917-3.712-4.905c-0.132-0.088-0.221-0.177-0.221-0.177
			c-1.016-0.839,0.266-2.519,1.37-1.855c3.358,1.988,4.684,4.153,5.303,5.258C-253.944-25.083-256.729-23.183-257.701-25.216z
			 M-246.742-17.836c-2.74,2.607-6.761,5.303-11.622,7.158c-1.282,0.486-2.077-1.325-0.884-1.944
			c3.667-1.855,7.601-4.286,10.473-7.379c3.314-3.58,5.568-8.175,5.479-13.699c-0.044-2.209,3.314-2.254,3.358-0.088
			C-239.848-27.381-242.632-21.769-246.742-17.836z M-254.74-33.789c-1.016-1.016,0.266-2.43,1.458-1.723
			c1.635,0.972,3.624,2.607,4.994,5.523c0.884,1.856-1.635,3.358-2.74,1.635c-1.325-3.093-3.491-5.214-3.491-5.214L-254.74-33.789z"
			/>
		<path fill="#0096FA" d="M-201.45-39.4c0.486,0,0.928-0.177,1.326-0.486c1.281-0.928,3.049,0.177,2.96,1.812
			c-0.221,4.242-2.784,9.854-7.777,15.024c-5.479,5.701-12.505,9.015-18.56,10.473c-1.591,0.398-2.253-1.989-0.707-2.475
			c3.137-1.016,8.042-2.784,13.478-7.203c3.933-3.182,7.07-7.115,9.412-13.434c0.177-0.486,0.221-0.884-0.354-0.884h-20.062
			c-1.723,0-1.723-2.828,0-2.828H-201.45z"/>
		<path fill="#0096FA" d="M-163.273-36.263c0.53,0,1.017-0.132,1.37-0.398c0.397-0.265,0.795-0.354,1.193-0.309
			c1.016,0,1.812,0.884,1.679,1.944c-0.486,3.491-1.37,6.452-3.667,10.429c-1.282,2.253-3.844,5.479-7.247,8.263
			c-3.977,3.314-7.556,4.861-9.368,5.436c-1.458,0.442-2.298-1.547-0.795-2.342c1.679-0.84,4.729-2.298,8.175-5.303
			c1.856-1.635,4.552-4.596,6.143-7.601c1.149-2.121,2.121-4.242,2.519-6.319c0.221-0.574,0.31-1.061-0.177-1.061h-17.896
			c-1.9,0-1.9-2.74,0-2.74H-163.273z M-162.964-44.306c1.768,0,1.679,2.74-0.133,2.74h-15.112c-1.812,0-1.724-2.74,0.088-2.74
			H-162.964z"/>
		<path fill="#0096FA" d="M-120.014-29.679c0.398,0,0.707-0.221,0.928-0.575c0.309-0.486,0.707-0.663,1.148-0.663
			c0.663,0,1.326,0.486,1.326,1.37c0,1.458-1.414,2.651-2.961,2.651h-25.497c-1.724,0-1.856-2.784-0.133-2.784H-120.014z"/>
	</g>
	<g>
		<path fill="#0096FA" d="M-314.435-95.684c0.354,0,0.619-0.177,0.795-0.486c0.221-0.397,0.575-0.574,0.972-0.574
			c0.53,0,1.061,0.397,1.061,1.104c0,1.149-1.149,2.121-2.475,2.121h-2.651v4.463c0,1.061-0.84,1.635-1.679,1.635
			c-0.707,0-1.458-0.486-1.546-1.414h-9.015v2.386h10.738c0.309,0,0.663-0.133,0.795-0.442c0.221-0.398,0.619-0.575,0.972-0.575
			c0.53,0,1.105,0.398,1.105,1.061c0,1.193-1.193,2.121-2.519,2.121h-11.091v2.387h14.538c0.354,0,0.619-0.177,0.795-0.398
			c0.221-0.398,0.575-0.53,0.928-0.53c0.574,0,1.061,0.398,1.061,1.061c0,1.149-1.105,2.077-2.431,2.077h-33.938
			c-1.414,0-1.502-2.209-0.044-2.209h15.819v-2.387h-12.02c-1.414,0-1.502-2.165-0.088-2.165h12.107v-2.386h-10.473
			c-1.458,0-1.547-2.121-0.088-2.121h10.561v-2.563h-15.422c-1.458,0-1.502-2.165-0.088-2.165h15.51v-2.563h-10.429
			c-1.458,0-1.546-2.165-0.088-2.165h10.517v-1.679c0-1.061,0.84-1.546,1.635-1.546c0.839,0,1.635,0.486,1.635,1.546v1.679h9.456
			c0.354-0.354,0.796-0.53,1.149-0.53c0.839,0,1.635,0.663,1.635,1.591v3.668H-314.435z M-317.66-65.679
			c0,1.061-0.796,1.679-1.68,1.679c-0.751,0-1.458-0.486-1.502-1.458h-19.09c-0.044,1.016-0.84,1.591-1.635,1.591
			s-1.546-0.53-1.546-1.547v-10.782c0-1.017,0.795-1.635,1.591-1.635c0.441,0,0.884,0.132,1.237,0.53h19.797
			c0.354-0.398,0.795-0.53,1.237-0.53c0.839,0,1.591,0.618,1.591,1.635V-65.679z M-339.888-72.528h19.001v-2.651h-19.001V-72.528z
			 M-339.888-67.624h19.001v-2.828h-19.001V-67.624z M-328.973-95.684h9.015v-2.563h-9.015V-95.684z M-328.973-90.956h9.015v-2.563
			h-9.015V-90.956z"/>
		<path fill="#0096FA" d="M-289.338-63.956c-2.563,0.133-4.552-0.751-6.01-2.077c-2.607-2.386-3.491-5.656-2.961-8.308
			c0.266-1.458,2.431-1.326,2.431,0.132c0,1.503,0.619,3.933,2.74,5.392c1.679,1.148,3.093,1.016,4.021,1.148
			C-286.775-67.358-286.907-64.088-289.338-63.956z M-281.693-77.743c0.796,0,0.31-0.707-0.044-1.325
			c-0.663-1.237-1.326-2.651-1.988-4.331c-2.475,0.707-4.861,0.84-6.143,0.707c-2.209-0.221-4.552-1.193-4.905-3.402
			c-0.221-1.414,0.53-3.712,3.138-5.656c0.884-0.663-0.177-1.414-1.193-1.988c-0.884-0.486-1.944-0.928-3.005-1.149
			c-1.325-0.309-1.104-2.121,0.266-2.209c3.049-0.177,5.965,1.104,7.865,3.049c0.884,0.884,0.442,2.563-0.795,2.961
			c-1.193,0.397-2.166,0.972-2.828,1.723c-1.856,2.033-0.928,3.756,1.723,4.021c1.546,0.177,3.491-0.177,4.949-0.663
			c-1.591-7.777-1.37-13.301-1.237-15.378c0.132-1.812,3.005-1.812,3.093,0.044c0.088,2.386-0.707,7.512,1.017,14.317
			c1.237-0.442,2.563-1.149,3.491-1.68c1.856-1.061,3.358,1.414,1.546,2.651c-0.928,0.619-2.563,1.37-3.977,1.856
			c2.43,5.037,4.772,6.717,5.347,7.291c1.812,1.812-0.84,4.552-2.695,2.828c-1.68-1.547-2.784-1.326-6.806-1.326
			c-1.546,0-1.546-2.342,0-2.342H-281.693z"/>
	</g>
</g>
<g id="レイヤー_1" display="none">
</g>
</svg>
